# xmcd
#
# Track frame offsets:
#	150
#	38922
#	71171
#	96597
#	133270
#	159291
#	184348
#	216274
#
# Disc length: 3172
#
# Revision: 1
# Processed by: cddbd v1.5.1PL0 Copyright (c) Steve Scherf et al.
# Submitted via: CDex 1.50beta10
# Normalized: r0:TDELIM( - )
#
DISCID=7b0c6208
DTITLE=Various Artist - Jazz For A Lazy Day [CD2]
DYEAR=2003
DGENRE=Jazz
TTITLE0=Ralph Moore - Morning Star
TTITLE1=Bobby Hutcherson - Del Valle
TTITLE2=Sonny Stitt - I'll Walk Alone
TTITLE3=Jack McDuff - Walking The Dog
TTITLE4=Wallace Roney - Float
TTITLE5=Richard "Groove" Holmes - Slo Blooze
TTITLE6=Houston Person and Ron Carter - Blue Seven
TTITLE7=Kenny Barron - The Procession
EXTD=YEAR: 2003
EXTT0=
EXTT1=
EXTT2=
EXTT3=
EXTT4=
EXTT5=
EXTT6=
EXTT7=
PLAYORDER=
